<mxfile host="app.diagrams.net" modified="2023-09-27T10:45:00.456Z" agent="Mozilla/5.0 (Windows NT 10.0; Win64; x64; rv:109.0) Gecko/20100101 Firefox/117.0" etag="As_MmJOA-G6WNhuoG31e" version="21.8.2" type="google">
  <diagram name="Page-1" id="PzdnIJKCWfSIEtAn9jhm">
    <mxGraphModel grid="1" page="1" gridSize="10" guides="1" tooltips="1" connect="1" arrows="1" fold="1" pageScale="1" pageWidth="850" pageHeight="1100" math="0" shadow="0">
      <root>
        <mxCell id="0" />
        <mxCell id="1" parent="0" />
        <mxCell id="vm0U2PbDTdoojhUBeWvB-5" style="edgeStyle=orthogonalEdgeStyle;rounded=0;orthogonalLoop=1;jettySize=auto;html=1;fillColor=#d5e8d4;strokeColor=#82b366;" edge="1" parent="1" source="vm0U2PbDTdoojhUBeWvB-1" target="vm0U2PbDTdoojhUBeWvB-4">
          <mxGeometry relative="1" as="geometry" />
        </mxCell>
        <mxCell id="vm0U2PbDTdoojhUBeWvB-9" style="edgeStyle=orthogonalEdgeStyle;rounded=0;orthogonalLoop=1;jettySize=auto;html=1;entryX=1;entryY=0.5;entryDx=0;entryDy=0;fillColor=#d5e8d4;strokeColor=#82b366;" edge="1" parent="1" source="vm0U2PbDTdoojhUBeWvB-1" target="vm0U2PbDTdoojhUBeWvB-7">
          <mxGeometry relative="1" as="geometry">
            <Array as="points">
              <mxPoint x="-100" y="280" />
              <mxPoint x="-100" y="370" />
            </Array>
          </mxGeometry>
        </mxCell>
        <mxCell id="vm0U2PbDTdoojhUBeWvB-12" style="edgeStyle=orthogonalEdgeStyle;rounded=0;orthogonalLoop=1;jettySize=auto;html=1;entryX=1;entryY=0.5;entryDx=0;entryDy=0;fillColor=#d5e8d4;strokeColor=#82b366;" edge="1" parent="1" source="vm0U2PbDTdoojhUBeWvB-1" target="vm0U2PbDTdoojhUBeWvB-11">
          <mxGeometry relative="1" as="geometry">
            <Array as="points">
              <mxPoint x="-100" y="280" />
              <mxPoint x="-100" y="460" />
            </Array>
          </mxGeometry>
        </mxCell>
        <mxCell id="vm0U2PbDTdoojhUBeWvB-37" value="&lt;b&gt;Device Introduction Message&lt;/b&gt;" style="edgeLabel;html=1;align=center;verticalAlign=middle;resizable=0;points=[];" connectable="0" vertex="1" parent="vm0U2PbDTdoojhUBeWvB-12">
          <mxGeometry x="-0.4276" y="-1" relative="1" as="geometry">
            <mxPoint x="-265" y="-9" as="offset" />
          </mxGeometry>
        </mxCell>
        <mxCell id="vm0U2PbDTdoojhUBeWvB-20" style="edgeStyle=orthogonalEdgeStyle;rounded=0;orthogonalLoop=1;jettySize=auto;html=1;entryX=0.5;entryY=0;entryDx=0;entryDy=0;" edge="1" parent="1" source="vm0U2PbDTdoojhUBeWvB-1" target="vm0U2PbDTdoojhUBeWvB-19">
          <mxGeometry relative="1" as="geometry" />
        </mxCell>
        <mxCell id="vm0U2PbDTdoojhUBeWvB-21" value="Registered" style="edgeLabel;html=1;align=center;verticalAlign=middle;resizable=0;points=[];" connectable="0" vertex="1" parent="vm0U2PbDTdoojhUBeWvB-20">
          <mxGeometry x="-0.0571" y="-1" relative="1" as="geometry">
            <mxPoint x="1" y="-23" as="offset" />
          </mxGeometry>
        </mxCell>
        <mxCell id="vm0U2PbDTdoojhUBeWvB-1" value="&lt;div&gt;Add event&lt;/div&gt;&lt;div&gt;Device tracker&lt;br&gt;&lt;/div&gt;" style="rounded=1;whiteSpace=wrap;html=1;" vertex="1" parent="1">
          <mxGeometry x="510" y="250" width="120" height="60" as="geometry" />
        </mxCell>
        <mxCell id="vm0U2PbDTdoojhUBeWvB-3" style="edgeStyle=orthogonalEdgeStyle;rounded=0;orthogonalLoop=1;jettySize=auto;html=1;" edge="1" parent="1" source="vm0U2PbDTdoojhUBeWvB-2" target="vm0U2PbDTdoojhUBeWvB-1">
          <mxGeometry relative="1" as="geometry" />
        </mxCell>
        <mxCell id="cOykLxI6Ht16yfQUxC0T-3" style="edgeStyle=orthogonalEdgeStyle;rounded=0;orthogonalLoop=1;jettySize=auto;html=1;entryX=0.5;entryY=0;entryDx=0;entryDy=0;exitX=0.75;exitY=1;exitDx=0;exitDy=0;" edge="1" parent="1" source="vm0U2PbDTdoojhUBeWvB-2" target="cOykLxI6Ht16yfQUxC0T-1">
          <mxGeometry relative="1" as="geometry">
            <Array as="points">
              <mxPoint x="595" y="220" />
              <mxPoint x="1020" y="220" />
            </Array>
          </mxGeometry>
        </mxCell>
        <mxCell id="cOykLxI6Ht16yfQUxC0T-9" style="edgeStyle=orthogonalEdgeStyle;rounded=0;orthogonalLoop=1;jettySize=auto;html=1;exitX=1;exitY=1;exitDx=0;exitDy=0;entryX=0.5;entryY=0;entryDx=0;entryDy=0;" edge="1" parent="1" source="vm0U2PbDTdoojhUBeWvB-2" target="cOykLxI6Ht16yfQUxC0T-8">
          <mxGeometry relative="1" as="geometry">
            <Array as="points">
              <mxPoint x="620" y="190" />
              <mxPoint x="1230" y="190" />
            </Array>
          </mxGeometry>
        </mxCell>
        <mxCell id="vm0U2PbDTdoojhUBeWvB-2" value="Device connected via USB" style="text;html=1;strokeColor=none;fillColor=none;align=center;verticalAlign=middle;whiteSpace=wrap;rounded=0;" vertex="1" parent="1">
          <mxGeometry x="520" y="90" width="100" height="60" as="geometry" />
        </mxCell>
        <mxCell id="vm0U2PbDTdoojhUBeWvB-4" value="Autoproviders" style="rounded=0;whiteSpace=wrap;html=1;" vertex="1" parent="1">
          <mxGeometry x="-250" y="250" width="120" height="60" as="geometry" />
        </mxCell>
        <mxCell id="vm0U2PbDTdoojhUBeWvB-10" style="edgeStyle=orthogonalEdgeStyle;rounded=0;orthogonalLoop=1;jettySize=auto;html=1;entryX=1;entryY=0.5;entryDx=0;entryDy=0;" edge="1" parent="1" source="vm0U2PbDTdoojhUBeWvB-7" target="vm0U2PbDTdoojhUBeWvB-8">
          <mxGeometry relative="1" as="geometry" />
        </mxCell>
        <mxCell id="vm0U2PbDTdoojhUBeWvB-16" value="Save device state" style="edgeLabel;html=1;align=center;verticalAlign=middle;resizable=0;points=[];" connectable="0" vertex="1" parent="vm0U2PbDTdoojhUBeWvB-10">
          <mxGeometry x="-0.0087" y="-3" relative="1" as="geometry">
            <mxPoint y="-7" as="offset" />
          </mxGeometry>
        </mxCell>
        <mxCell id="vm0U2PbDTdoojhUBeWvB-7" value="Processor" style="rounded=0;whiteSpace=wrap;html=1;" vertex="1" parent="1">
          <mxGeometry x="-250" y="340" width="120" height="60" as="geometry" />
        </mxCell>
        <mxCell id="vm0U2PbDTdoojhUBeWvB-8" value="DB" style="rounded=0;whiteSpace=wrap;html=1;" vertex="1" parent="1">
          <mxGeometry x="-485" y="340" width="120" height="60" as="geometry" />
        </mxCell>
        <mxCell id="vm0U2PbDTdoojhUBeWvB-18" style="edgeStyle=orthogonalEdgeStyle;rounded=0;orthogonalLoop=1;jettySize=auto;html=1;entryX=1;entryY=0.5;entryDx=0;entryDy=0;" edge="1" parent="1" source="vm0U2PbDTdoojhUBeWvB-11" target="vm0U2PbDTdoojhUBeWvB-17">
          <mxGeometry relative="1" as="geometry" />
        </mxCell>
        <mxCell id="vm0U2PbDTdoojhUBeWvB-11" value="&lt;div&gt;Reaper&lt;/div&gt;" style="rounded=0;whiteSpace=wrap;html=1;" vertex="1" parent="1">
          <mxGeometry x="-250" y="430" width="120" height="60" as="geometry" />
        </mxCell>
        <mxCell id="vm0U2PbDTdoojhUBeWvB-15" style="edgeStyle=orthogonalEdgeStyle;rounded=0;orthogonalLoop=1;jettySize=auto;html=1;entryX=1;entryY=0.5;entryDx=0;entryDy=0;" edge="1" parent="1" source="vm0U2PbDTdoojhUBeWvB-13" target="vm0U2PbDTdoojhUBeWvB-14">
          <mxGeometry relative="1" as="geometry" />
        </mxCell>
        <mxCell id="vm0U2PbDTdoojhUBeWvB-13" value="Websocket" style="rounded=0;whiteSpace=wrap;html=1;" vertex="1" parent="1">
          <mxGeometry x="-250" y="560" width="120" height="60" as="geometry" />
        </mxCell>
        <mxCell id="vm0U2PbDTdoojhUBeWvB-14" value="UI status event" style="rounded=1;whiteSpace=wrap;html=1;" vertex="1" parent="1">
          <mxGeometry x="-485" y="560" width="120" height="60" as="geometry" />
        </mxCell>
        <mxCell id="vm0U2PbDTdoojhUBeWvB-17" value="Bump timeout" style="rounded=1;whiteSpace=wrap;html=1;" vertex="1" parent="1">
          <mxGeometry x="-480" y="430" width="120" height="60" as="geometry" />
        </mxCell>
        <mxCell id="vm0U2PbDTdoojhUBeWvB-23" style="edgeStyle=orthogonalEdgeStyle;rounded=0;orthogonalLoop=1;jettySize=auto;html=1;entryX=1;entryY=0.5;entryDx=0;entryDy=0;" edge="1" parent="1" source="vm0U2PbDTdoojhUBeWvB-19" target="vm0U2PbDTdoojhUBeWvB-22">
          <mxGeometry relative="1" as="geometry" />
        </mxCell>
        <mxCell id="vm0U2PbDTdoojhUBeWvB-24" value="&lt;div&gt;Device present&lt;/div&gt;&lt;div&gt;Type&lt;br&gt;&lt;/div&gt;&lt;div align=&quot;left&quot;&gt;- device&lt;/div&gt;&lt;div align=&quot;left&quot;&gt;- emulator&lt;br&gt;&lt;/div&gt;" style="edgeLabel;html=1;align=center;verticalAlign=middle;resizable=0;points=[];" connectable="0" vertex="1" parent="vm0U2PbDTdoojhUBeWvB-23">
          <mxGeometry x="-0.44" y="2" relative="1" as="geometry">
            <mxPoint x="-6" y="42" as="offset" />
          </mxGeometry>
        </mxCell>
        <mxCell id="vm0U2PbDTdoojhUBeWvB-38" style="edgeStyle=orthogonalEdgeStyle;rounded=0;orthogonalLoop=1;jettySize=auto;html=1;entryX=0.5;entryY=0;entryDx=0;entryDy=0;exitX=0.5;exitY=1;exitDx=0;exitDy=0;" edge="1" parent="1" source="vm0U2PbDTdoojhUBeWvB-19" target="cOykLxI6Ht16yfQUxC0T-23">
          <mxGeometry relative="1" as="geometry">
            <mxPoint x="570" y="600" as="targetPoint" />
            <Array as="points">
              <mxPoint x="570" y="550" />
              <mxPoint x="510" y="550" />
            </Array>
          </mxGeometry>
        </mxCell>
        <mxCell id="vm0U2PbDTdoojhUBeWvB-39" value="&lt;div&gt;Device present&lt;/div&gt;&lt;div&gt;Type&lt;/div&gt;&lt;div&gt;- unauthorized&lt;br&gt;&lt;/div&gt;" style="edgeLabel;html=1;align=center;verticalAlign=middle;resizable=0;points=[];" connectable="0" vertex="1" parent="vm0U2PbDTdoojhUBeWvB-38">
          <mxGeometry x="-0.0694" y="-1" relative="1" as="geometry">
            <mxPoint x="41" y="-42" as="offset" />
          </mxGeometry>
        </mxCell>
        <mxCell id="vm0U2PbDTdoojhUBeWvB-41" style="edgeStyle=orthogonalEdgeStyle;rounded=0;orthogonalLoop=1;jettySize=auto;html=1;entryX=0.25;entryY=0;entryDx=0;entryDy=0;" edge="1" parent="1" source="vm0U2PbDTdoojhUBeWvB-19" target="vm0U2PbDTdoojhUBeWvB-40">
          <mxGeometry relative="1" as="geometry">
            <Array as="points">
              <mxPoint x="740" y="410" />
            </Array>
          </mxGeometry>
        </mxCell>
        <mxCell id="vm0U2PbDTdoojhUBeWvB-42" value="&lt;div&gt;Device present&lt;br&gt;&lt;/div&gt;&lt;div&gt;Type&lt;/div&gt;&lt;div&gt;- not recognized&lt;br&gt;&lt;/div&gt;" style="edgeLabel;html=1;align=center;verticalAlign=middle;resizable=0;points=[];" connectable="0" vertex="1" parent="vm0U2PbDTdoojhUBeWvB-41">
          <mxGeometry x="-0.2787" y="-3" relative="1" as="geometry">
            <mxPoint x="23" y="57" as="offset" />
          </mxGeometry>
        </mxCell>
        <mxCell id="vm0U2PbDTdoojhUBeWvB-43" style="edgeStyle=orthogonalEdgeStyle;rounded=0;orthogonalLoop=1;jettySize=auto;html=1;exitX=1;exitY=0.25;exitDx=0;exitDy=0;entryX=0.75;entryY=0;entryDx=0;entryDy=0;" edge="1" parent="1" source="vm0U2PbDTdoojhUBeWvB-19" target="vm0U2PbDTdoojhUBeWvB-40">
          <mxGeometry relative="1" as="geometry">
            <Array as="points">
              <mxPoint x="800" y="395" />
            </Array>
          </mxGeometry>
        </mxCell>
        <mxCell id="vm0U2PbDTdoojhUBeWvB-44" value="Device not present" style="edgeLabel;html=1;align=center;verticalAlign=middle;resizable=0;points=[];" connectable="0" vertex="1" parent="vm0U2PbDTdoojhUBeWvB-43">
          <mxGeometry x="-0.5026" y="4" relative="1" as="geometry">
            <mxPoint x="102" y="29" as="offset" />
          </mxGeometry>
        </mxCell>
        <mxCell id="vm0U2PbDTdoojhUBeWvB-19" value="Check device state" style="rounded=1;whiteSpace=wrap;html=1;" vertex="1" parent="1">
          <mxGeometry x="510" y="380" width="120" height="60" as="geometry" />
        </mxCell>
        <mxCell id="vm0U2PbDTdoojhUBeWvB-35" style="edgeStyle=orthogonalEdgeStyle;rounded=0;orthogonalLoop=1;jettySize=auto;html=1;entryX=1;entryY=0.75;entryDx=0;entryDy=0;fillColor=#f8cecc;strokeColor=#b85450;exitX=0;exitY=0.5;exitDx=0;exitDy=0;" edge="1" parent="1" source="vm0U2PbDTdoojhUBeWvB-22" target="vm0U2PbDTdoojhUBeWvB-7">
          <mxGeometry relative="1" as="geometry">
            <Array as="points">
              <mxPoint x="60" y="510" />
              <mxPoint x="60" y="385" />
            </Array>
          </mxGeometry>
        </mxCell>
        <mxCell id="vm0U2PbDTdoojhUBeWvB-36" value="&lt;b&gt;Device Absent Message&lt;br&gt;&lt;/b&gt;" style="edgeLabel;html=1;align=center;verticalAlign=middle;resizable=0;points=[];" connectable="0" vertex="1" parent="vm0U2PbDTdoojhUBeWvB-35">
          <mxGeometry x="0.3469" y="2" relative="1" as="geometry">
            <mxPoint x="-19" y="13" as="offset" />
          </mxGeometry>
        </mxCell>
        <mxCell id="vm0U2PbDTdoojhUBeWvB-22" value="" style="rounded=1;whiteSpace=wrap;html=1;" vertex="1" parent="1">
          <mxGeometry x="170" y="430" width="230" height="160" as="geometry" />
        </mxCell>
        <mxCell id="vm0U2PbDTdoojhUBeWvB-33" style="edgeStyle=orthogonalEdgeStyle;rounded=0;orthogonalLoop=1;jettySize=auto;html=1;entryX=0.5;entryY=0;entryDx=0;entryDy=0;" edge="1" parent="1" source="vm0U2PbDTdoojhUBeWvB-25" target="vm0U2PbDTdoojhUBeWvB-22">
          <mxGeometry relative="1" as="geometry">
            <Array as="points">
              <mxPoint x="260" y="410" />
              <mxPoint x="285" y="410" />
            </Array>
          </mxGeometry>
        </mxCell>
        <mxCell id="vm0U2PbDTdoojhUBeWvB-34" value="&lt;div&gt;Device worker died&lt;/div&gt;&lt;div&gt;Restarting worker&lt;br&gt;&lt;/div&gt;" style="edgeLabel;html=1;align=center;verticalAlign=middle;resizable=0;points=[];" connectable="0" vertex="1" parent="vm0U2PbDTdoojhUBeWvB-33">
          <mxGeometry x="-0.5627" relative="1" as="geometry">
            <mxPoint x="50" y="-15" as="offset" />
          </mxGeometry>
        </mxCell>
        <mxCell id="vm0U2PbDTdoojhUBeWvB-25" value="Spawn worker" style="rounded=1;whiteSpace=wrap;html=1;" vertex="1" parent="1">
          <mxGeometry x="200" y="500" width="120" height="60" as="geometry" />
        </mxCell>
        <mxCell id="vm0U2PbDTdoojhUBeWvB-30" value="Work" style="text;html=1;strokeColor=none;fillColor=none;align=center;verticalAlign=middle;whiteSpace=wrap;rounded=0;" vertex="1" parent="1">
          <mxGeometry x="160" y="440" width="60" height="30" as="geometry" />
        </mxCell>
        <mxCell id="vm0U2PbDTdoojhUBeWvB-40" value="&lt;div&gt;Stop worker&lt;/div&gt;" style="rounded=1;whiteSpace=wrap;html=1;" vertex="1" parent="1">
          <mxGeometry x="710" y="540" width="120" height="60" as="geometry" />
        </mxCell>
        <mxCell id="cOykLxI6Ht16yfQUxC0T-4" style="edgeStyle=orthogonalEdgeStyle;rounded=0;orthogonalLoop=1;jettySize=auto;html=1;exitX=0;exitY=0.75;exitDx=0;exitDy=0;fillColor=#dae8fc;strokeColor=#6c8ebf;" edge="1" parent="1" source="cOykLxI6Ht16yfQUxC0T-1">
          <mxGeometry relative="1" as="geometry">
            <mxPoint x="-130" y="360" as="targetPoint" />
            <Array as="points">
              <mxPoint x="780" y="295" />
              <mxPoint x="780" y="360" />
              <mxPoint x="-130" y="360" />
            </Array>
          </mxGeometry>
        </mxCell>
        <mxCell id="cOykLxI6Ht16yfQUxC0T-5" value="Device Status Message" style="edgeLabel;html=1;align=center;verticalAlign=middle;resizable=0;points=[];" connectable="0" vertex="1" parent="cOykLxI6Ht16yfQUxC0T-4">
          <mxGeometry x="0.2696" y="2" relative="1" as="geometry">
            <mxPoint x="32" y="-12" as="offset" />
          </mxGeometry>
        </mxCell>
        <mxCell id="cOykLxI6Ht16yfQUxC0T-6" style="edgeStyle=orthogonalEdgeStyle;rounded=0;orthogonalLoop=1;jettySize=auto;html=1;exitX=0;exitY=0.75;exitDx=0;exitDy=0;entryX=1;entryY=0.5;entryDx=0;entryDy=0;fillColor=#dae8fc;strokeColor=#6c8ebf;" edge="1" parent="1" source="cOykLxI6Ht16yfQUxC0T-1" target="vm0U2PbDTdoojhUBeWvB-13">
          <mxGeometry relative="1" as="geometry">
            <Array as="points">
              <mxPoint x="780" y="295" />
              <mxPoint x="780" y="360" />
              <mxPoint x="100" y="360" />
              <mxPoint x="100" y="590" />
            </Array>
          </mxGeometry>
        </mxCell>
        <mxCell id="cOykLxI6Ht16yfQUxC0T-7" style="edgeStyle=orthogonalEdgeStyle;rounded=0;orthogonalLoop=1;jettySize=auto;html=1;entryX=0.75;entryY=0;entryDx=0;entryDy=0;" edge="1" parent="1" source="cOykLxI6Ht16yfQUxC0T-1" target="vm0U2PbDTdoojhUBeWvB-19">
          <mxGeometry relative="1" as="geometry">
            <Array as="points">
              <mxPoint x="680" y="280" />
              <mxPoint x="680" y="340" />
              <mxPoint x="600" y="340" />
            </Array>
          </mxGeometry>
        </mxCell>
        <mxCell id="cOykLxI6Ht16yfQUxC0T-1" value="&lt;div&gt;Change event&lt;/div&gt;&lt;div&gt;Device tracker&lt;br&gt;&lt;/div&gt;" style="rounded=1;whiteSpace=wrap;html=1;" vertex="1" parent="1">
          <mxGeometry x="960" y="250" width="120" height="60" as="geometry" />
        </mxCell>
        <mxCell id="cOykLxI6Ht16yfQUxC0T-10" style="edgeStyle=orthogonalEdgeStyle;rounded=0;orthogonalLoop=1;jettySize=auto;html=1;exitX=0;exitY=0.75;exitDx=0;exitDy=0;entryX=1;entryY=0.75;entryDx=0;entryDy=0;fillColor=#f8cecc;strokeColor=#b85450;" edge="1" parent="1" source="cOykLxI6Ht16yfQUxC0T-8" target="vm0U2PbDTdoojhUBeWvB-7">
          <mxGeometry relative="1" as="geometry">
            <Array as="points">
              <mxPoint x="1130" y="295" />
              <mxPoint x="1130" y="350" />
              <mxPoint x="400" y="350" />
              <mxPoint x="400" y="385" />
            </Array>
          </mxGeometry>
        </mxCell>
        <mxCell id="cOykLxI6Ht16yfQUxC0T-11" style="edgeStyle=orthogonalEdgeStyle;rounded=0;orthogonalLoop=1;jettySize=auto;html=1;entryX=1;entryY=0;entryDx=0;entryDy=0;" edge="1" parent="1" source="cOykLxI6Ht16yfQUxC0T-8" target="vm0U2PbDTdoojhUBeWvB-19">
          <mxGeometry relative="1" as="geometry">
            <Array as="points">
              <mxPoint x="1230" y="380" />
            </Array>
          </mxGeometry>
        </mxCell>
        <mxCell id="cOykLxI6Ht16yfQUxC0T-8" value="&lt;div&gt;Remove event&lt;/div&gt;Device tracker" style="rounded=1;whiteSpace=wrap;html=1;" vertex="1" parent="1">
          <mxGeometry x="1170" y="250" width="120" height="60" as="geometry" />
        </mxCell>
        <mxCell id="cOykLxI6Ht16yfQUxC0T-12" value="&lt;h1&gt;Device connection&lt;/h1&gt;&lt;p&gt;The purpose of this diagram is to show how&amp;nbsp; look&#39;s connection between events when device is connected by USB or through WebADB.&lt;/p&gt;" style="text;html=1;strokeColor=none;fillColor=none;spacing=5;spacingTop=-20;whiteSpace=wrap;overflow=hidden;rounded=0;" vertex="1" parent="1">
          <mxGeometry x="-485" y="70" width="835" height="70" as="geometry" />
        </mxCell>
        <mxCell id="cOykLxI6Ht16yfQUxC0T-21" style="edgeStyle=orthogonalEdgeStyle;rounded=0;orthogonalLoop=1;jettySize=auto;html=1;entryX=0.5;entryY=0;entryDx=0;entryDy=0;" edge="1" parent="1" source="cOykLxI6Ht16yfQUxC0T-19" target="cOykLxI6Ht16yfQUxC0T-20">
          <mxGeometry relative="1" as="geometry" />
        </mxCell>
        <mxCell id="cOykLxI6Ht16yfQUxC0T-19" value="Device connected by WebAdb" style="text;html=1;strokeColor=none;fillColor=none;align=center;verticalAlign=middle;whiteSpace=wrap;rounded=0;" vertex="1" parent="1">
          <mxGeometry x="1520" y="105" width="90" height="30" as="geometry" />
        </mxCell>
        <mxCell id="cOykLxI6Ht16yfQUxC0T-22" style="edgeStyle=orthogonalEdgeStyle;rounded=0;orthogonalLoop=1;jettySize=auto;html=1;fillColor=#d5e8d4;strokeColor=#82b366;exitX=0;exitY=0.5;exitDx=0;exitDy=0;" edge="1" parent="1" source="cOykLxI6Ht16yfQUxC0T-20">
          <mxGeometry relative="1" as="geometry">
            <mxPoint x="50" y="280" as="targetPoint" />
            <Array as="points">
              <mxPoint x="1460" y="280" />
              <mxPoint x="1460" y="230" />
              <mxPoint x="100" y="230" />
              <mxPoint x="100" y="280" />
            </Array>
          </mxGeometry>
        </mxCell>
        <mxCell id="cOykLxI6Ht16yfQUxC0T-20" value="&lt;div&gt;Add my device&lt;/div&gt;&lt;div&gt;Provider&lt;br&gt;&lt;/div&gt;" style="rounded=1;whiteSpace=wrap;html=1;" vertex="1" parent="1">
          <mxGeometry x="1505" y="250" width="120" height="60" as="geometry" />
        </mxCell>
        <mxCell id="cOykLxI6Ht16yfQUxC0T-24" style="edgeStyle=orthogonalEdgeStyle;rounded=0;orthogonalLoop=1;jettySize=auto;html=1;exitX=0.25;exitY=0;exitDx=0;exitDy=0;entryX=0.25;entryY=1;entryDx=0;entryDy=0;" edge="1" parent="1" source="cOykLxI6Ht16yfQUxC0T-23" target="vm0U2PbDTdoojhUBeWvB-19">
          <mxGeometry relative="1" as="geometry" />
        </mxCell>
        <mxCell id="cOykLxI6Ht16yfQUxC0T-25" style="edgeStyle=orthogonalEdgeStyle;rounded=0;orthogonalLoop=1;jettySize=auto;html=1;exitX=0;exitY=0.5;exitDx=0;exitDy=0;entryX=1;entryY=0.75;entryDx=0;entryDy=0;fillColor=#ffe6cc;strokeColor=#d79b00;" edge="1" parent="1" source="cOykLxI6Ht16yfQUxC0T-23" target="vm0U2PbDTdoojhUBeWvB-11">
          <mxGeometry relative="1" as="geometry">
            <Array as="points">
              <mxPoint x="-60" y="630" />
              <mxPoint x="-60" y="475" />
            </Array>
          </mxGeometry>
        </mxCell>
        <mxCell id="cOykLxI6Ht16yfQUxC0T-26" value="Device heartbeat message" style="edgeLabel;html=1;align=center;verticalAlign=middle;resizable=0;points=[];" connectable="0" vertex="1" parent="cOykLxI6Ht16yfQUxC0T-25">
          <mxGeometry x="-0.1701" y="2" relative="1" as="geometry">
            <mxPoint x="5" y="-12" as="offset" />
          </mxGeometry>
        </mxCell>
        <mxCell id="cOykLxI6Ht16yfQUxC0T-29" style="edgeStyle=orthogonalEdgeStyle;rounded=0;orthogonalLoop=1;jettySize=auto;html=1;exitX=1;exitY=0.5;exitDx=0;exitDy=0;entryX=0.5;entryY=1;entryDx=0;entryDy=0;fillColor=#ffe6cc;strokeColor=#d79b00;dashed=1;" edge="1" parent="1" source="cOykLxI6Ht16yfQUxC0T-23" target="cOykLxI6Ht16yfQUxC0T-1">
          <mxGeometry relative="1" as="geometry" />
        </mxCell>
        <mxCell id="cOykLxI6Ht16yfQUxC0T-30" value="Resend device status (optional)" style="edgeLabel;html=1;align=center;verticalAlign=middle;resizable=0;points=[];" connectable="0" vertex="1" parent="cOykLxI6Ht16yfQUxC0T-29">
          <mxGeometry x="-0.4" y="-5" relative="1" as="geometry">
            <mxPoint y="-15" as="offset" />
          </mxGeometry>
        </mxCell>
        <mxCell id="cOykLxI6Ht16yfQUxC0T-23" value="Unauthorized" style="rounded=1;whiteSpace=wrap;html=1;fillColor=#ffe6cc;strokeColor=#d79b00;" vertex="1" parent="1">
          <mxGeometry x="450" y="600" width="120" height="60" as="geometry" />
        </mxCell>
      </root>
    </mxGraphModel>
  </diagram>
</mxfile>
